PathFileType	4	(X/Y/Z)	RBDS002\RBDS002runT35.trc
DataRate	CameraRate	NumFrames	NumMarkers	Units	OrigDataRate	OrigDataStartFrame	OrigNumFrames
150.000000	150.000000	5	33	mm	150.000000	0	4500
Frame#	Time	L.ASIS			L.Heel.Bottom			L.Heel.Lateral			L.Heel.Top			L.Iliac.Crest			L.MT1			L.MT5			L.PSIS			L.Shank.Bottom.Lateral			L.Shank.Bottom.Medial			L.Shank.Top.Lateral			L.Shank.Top.Medial			L.Thigh.Bottom.Lateral			L.Thigh.Bottom.Medial			L.Thigh.Top.Lateral			L.Thigh.Top.Medial			R.ASIS			R.ASY			R.Heel.Bottom			R.Heel.Lateral			R.Heel.Top			R.Iliac.Crest			R.MT1			R.MT5			R.PSIS			R.Shank.Bottom.Lateral			R.Shank.Bottom.Medial			R.Shank.Top.Lateral			R.Shank.Top.Medial			R.Thigh.Bottom.Lateral			R.Thigh.Bottom.Medial			R.Thigh.Top.Lateral			R.Thigh.Top.Medial			
		X1	Y1	Z1	X2	Y2	Z2	X3	Y3	Z3	X4	Y4	Z4	X5	Y5	Z5	X6	Y6	Z6	X7	Y7	Z7	X8	Y8	Z8	X9	Y9	Z9	X10	Y10	Z10	X11	Y11	Z11	X12	Y12	Z12	X13	Y13	Z13	X14	Y14	Z14	X15	Y15	Z15	X16	Y16	Z16	X17	Y17	Z17	X18	Y18	Z18	X19	Y19	Z19	X20	Y20	Z20	X21	Y21	Z21	X22	Y22	Z22	X23	Y23	Z23	X24	Y24	Z24	X25	Y25	Z25	X26	Y26	Z26	X27	Y27	Z27	X28	Y28	Z28	X29	Y29	Z29	X30	Y30	Z30	X31	Y31	Z31	X32	Y32	Z32	X33	Y33	Z33	

1	0	2244.731413583943	1041.494203482353	917.0043245321236	1522.729172625776	380.739785619139	976.1748311374554	1532.448240778146	352.852780347844	927.5330409784577	1572.494638367627	381.9917942613125	965.4144168059936	2194.062143378689	1140.964156047889	867.1377157007703	1596.040843457055	162.8407941991701	1004.93278198354	1557.527541922769	188.9048379279722	899.6822219769158	2065.80480358148	1106.526568707863	964.7698280528642	1649.285654733687	371.6645703223477	904.3109453523215	1630.12275785818	400.4337924186693	942.9878081234673	1706.151722289407	426.7830085128878	887.6377856076647	1689.726473534554	458.4375534083405	927.0766048938701	1983.669578326224	655.5397691414067	872.4469652173773	1940.215549883258	676.4506945061542	928.5926702553045	2012.882459061116	761.6093537449655	861.2251480070256	1975.541006928172	780.3572348302437	915.7381103687053	2244.590778833981	1064.335599038958	1122.452556462219	2607.103232091048	207.6402405594827	1065.060743072236	2443.946714207744	98.70731460686214	1063.0771113668	2465.617210005382	115.140930798394	1102.563576481052	2441.314220044318	149.933715946146	1068.079847007665	2143.051936072267	1148.191315459662	1172.055931033749	2660.054146476688	182.7907330747251	1015.618909019415	2640.172947709041	154.6665335946452	1122.580892496981	2059.422690413155	1104.461713483683	1054.785198596933	2466.506386055423	258.9090080095841	1126.935280758207	2424.741325038078	252.218125447567	1092.07113054267	2435.958476021487	331.9232275698016	1145.767837058698	2397.18368410102	325.693858801395	1108.1217212728	2327.838716453331	676.1061994662396	1163.79246450388	2276.095484118287	650.6265663235702	1117.980356191738	2262.551636643963	761.7369013367302	1187.894570007849	2211.5860737116	735.6925844374977	1147.082515773783	
2	0.006666666666666667	2245.052621289535	1040.729441805054	916.0231663313151	1521.916085949107	394.8896398929584	975.5673765225796	1531.314161446889	366.6250635856743	927.0567794400343	1571.77584941639	394.8237042186331	965.5142920519132	2191.318556900734	1140.631527423943	866.6170105144807	1589.054805271707	175.356569669663	1005.475242001172	1552.342781054271	202.2698911151944	899.776985884408	2065.951758599445	1104.784566333321	965.6437950555332	1649.108824157855	380.6087744523348	904.6828451977489	1630.815060291978	410.6541228043251	942.7025359944015	1708.38903839823	433.0789134075858	888.1616636488526	1692.829386473583	465.8988985724171	926.9311293816136	1990.656431702052	650.1613758311656	872.7125261378153	1946.896529290377	670.847988440767	928.7265249149904	2018.028754664527	756.5183381202626	860.3124916002516	1980.265109212187	775.2211587452673	914.655425312589	2245.425812689148	1063.014795189762	1121.010978069645	2606.257701065828	203.9899064520841	1065.628769033189	2442.452956482508	95.84404263606936	1062.716069264054	2464.316481052094	111.6686112629904	1102.333663034885	2440.056378250768	147.0180989390529	1068.312862528825	2144.63081035133	1144.626433693449	1172.744125857802	2659.049199874629	179.6795056475757	1015.592230119137	2639.210054444688	149.9775423354134	1122.031553183981	2059.703920782678	1102.479941325746	1055.662293787057	2465.378118835423	256.0084461739328	1127.483488155312	2423.571770043562	249.2941098873905	1092.704692102837	2434.790062120669	329.0344838714724	1146.350351200955	2395.938084447464	322.7441540590943	1108.770874181628	2328.446133184938	673.7573012520995	1164.389452497387	2276.324527514649	647.9833423520405	1119.250598408019	2263.328311757872	759.3335822215871	1188.840796175513	2212.269464882119	733.3980195123324	1148.140256024152	
3	0.01333333333333333	2245.379634440518	1039.823420010592	915.0978508559931	1521.543287405627	408.9294567391386	975.0102445741908	1530.598161435295	380.2871263321576	926.6352564167386	1571.47528476354	407.548911690597	965.6191488777883	2188.63938340465	1140.106993669853	866.1128382171445	1582.525100529412	187.7970916649478	1006.011686286913	1547.571956311144	215.5537069553193	899.8846867295248	2066.121874051554	1102.854108213476	966.4706411621287	1649.307128297093	389.4489024024097	905.0639487503732	1631.905100370279	420.7545291949166	942.4246055994678	1710.94232728062	439.2472304764482	888.6609192648045	1696.284518542137	473.2179750792405	926.7649339646093	1997.715370242681	644.6724094738673	873.0114947250673	1953.690782860706	665.0958844216841	928.9360074453709	2023.206724202328	751.3172067934509	859.4872215100798	1985.057497850676	769.9304712289905	913.6921633527003	2246.257161698105	1061.597955037991	1119.70465801829	2604.713635753294	199.9288796517824	1066.326579761958	2440.162502096111	92.78802361787476	1062.403907535647	2462.19296586753	107.9906993889157	1102.164660308615	2438.062803636946	143.9086226103975	1068.582223995707	2146.134308970728	1141.066157222877	1173.375186917113	2657.339610120356	176.0269173898357	1015.738862737493	2637.413490798643	144.8808100248208	1121.681631958507	2059.994104714953	1100.327925101797	1056.493455633043	2463.6377521727	252.8821327738426	1128.08207063649	2421.812048664373	246.2095765307703	1093.355539616313	2433.131913250149	325.9661134221736	1146.949228862265	2394.223101789073	319.6780143476966	1109.406541064109	2329.023329052581	671.3419833903157	1164.966279691436	2276.543135323506	645.2799392149949	1120.472148996037	2264.078263722658	756.8953985092279	1189.703299763494	2212.917182903841	731.0367533803196	1149.137400058503	
4	0.02	2245.729684619629	1038.649710535162	914.2720197982752	1521.993677819606	422.766047260401	974.5559993429017	1530.663668833851	393.7494228056894	926.3210582638122	1571.956549326729	420.0778063812849	965.7406251070583	2186.107309445183	1139.216667095648	865.63943848676	1576.853249525986	200.102383696676	1006.534356850251	1543.5764801298	228.6949691436723	900.0164179424057	2066.343721045547	1100.544825397071	967.210224203799	1650.204658827274	398.1003239192079	905.4645992212858	1633.740455199109	430.6336570817412	942.1698127890792	1714.083177437773	445.1806248895487	889.1167566426304	1700.398387151356	480.2694236576977	926.5682942226978	2004.885966037121	638.965879497536	873.3710024114187	1960.672745908288	659.0505222696659	929.2849986753741	2028.43204459557	745.9016328697957	858.8331028793195	1989.969612254894	764.3395112121626	912.9625394352372	2247.093592786306	1059.984712456567	1118.64025960209	2601.842209842353	195.0907953243413	1067.241532034971	2436.362192338645	89.37310903849907	1062.169601551828	2458.512548983636	103.9350545453412	1102.093511803919	2434.677338390664	140.4375227478084	1068.89667508294	2147.509590526355	1137.511064267092	1173.907174120831	2654.294588813526	171.3558301190687	1016.196763101653	2634.03837244297	139.0263860360102	1121.692237412841	2060.309583416563	1097.834118715839	1057.24313130837	2460.753454336313	249.3171435320398	1128.743148403452	2418.940889171217	242.8127005800311	1094.014659375857	2430.567511402243	322.5486533967671	1147.552571921295	2391.630768143976	316.3841608236774	1110.000826237315	2329.538493222434	668.774701097985	1165.495112592334	2276.732646280564	642.4367475900267	1121.595847494727	2264.777915828228	754.3645093334155	1190.400565423664	2213.495882323753	728.5254166408685	1150.015006687534	
5	0.02666666666666667	2246.118762948173	1037.109524565584	913.5776075302521	1523.567598800455	436.2992294430574	974.2522414688545	1531.797620940158	406.9192110521677	926.1580820204439	1573.506400764428	432.3160665574116	965.8942477479151	2183.805096121232	1137.820979490722	865.2083462812055	1572.37241436396	212.1999367427676	1007.031722879607	1540.652817198279	241.6240219072198	900.1777958909504	2066.63936042431	1097.702070524429	967.8319894394194	1652.057406203026	406.4854343611918	905.8931489682233	1636.596228060675	440.1951668170282	941.9562363007142	1718.023858114466	450.7886078895214	889.517193190606	1705.409785119912	486.9422940940522	926.3425877833657	2012.187966688639	632.9625025024314	873.8081785075494	1967.887664970326	652.6038144709812	929.8172017436249	2033.711355777239	740.1942669178521	858.4161756607858	1995.037523752127	758.3372160808271	912.556590198682	2247.950553478466	1058.095193941301	1117.89987053903	2597.151627684429	189.1988210674644	1068.426008256342	2430.496010168638	85.48507586148364	1062.039622284316	2452.707097179795	99.38469974589029	1102.150574319893	2429.391194910881	136.4882029648164	1069.263241392113	2148.714408790472	1133.960826639919	1174.30985803815	2649.416243403066	165.3111528438436	1017.054794287947	2628.510128525476	132.1686071119971	1122.176597270276	2060.668596996635	1094.857673442146	1057.881389799272	2456.323273910684	245.140496907433	1129.473094093639	2414.557966319671	238.9779417150641	1094.679914209649	2426.783817590846	318.6397216560231	1148.154202203438	2387.849524987704	312.7657873404375	1110.542423420756	2329.951370358516	665.9590525918879	1165.952114774396	2276.864763452347	639.3713874449256	1122.572639961002	2265.396646395353	751.6654699231502	1190.873343410826	2213.971604253763	725.7798399086371	1150.719697497427	
